<svg width="1000" height="1000" viewBox="0 0 1000 1000" fill="none" xmlns="http://www.w3.org/2000/svg">
<path d="M750 743.902L506.098 500H590.779L750 659.045V743.902Z" fill="white"/>
<path d="M506.098 500L750 256.098V340.779L590.955 500H506.098Z" fill="white"/>
<path d="M500 493.902L256.098 250H340.779L500 409.045V493.902Z" fill="white"/>
<path d="M743.902 250L500 493.902V409.221L659.045 250H743.902Z" fill="white"/>
<path d="M500 506.098L743.902 750H659.221L500 590.955V506.098Z" fill="white"/>
<path d="M256.098 750L500 506.098V590.779L340.955 750H256.098Z" fill="white"/>
<path d="M256.098 750L500 506.098V590.779L340.955 750H256.098Z" fill="white"/>
<path d="M256.098 750L500 506.098V590.779L340.955 750H256.098Z" fill="white"/>
<path d="M256.098 750L500 506.098V590.779L340.955 750H256.098Z" fill="white"/>
<path d="M250 256.098L493.902 500H409.221L250 340.955V256.098Z" fill="white"/>
<path d="M493.902 500L250 743.902V659.221L409.045 500H493.902Z" fill="white"/>
</svg>
